SplineFontDB: 3.0
FontName: A-Industrial-Black
FullName: A Industrial Black
FamilyName: A Industrial Black
Weight: Black
Copyright: Copyright (c) 2017, Asabina GmbH <type.industrial@asabina.de>
UComments: "A decorative type used in the wordmark for Asabina Gmbh. The type intents to look industrial and resemble some attributes one may find in typefaces associated with sci-fi productions."
FontLog: "2017-9-16: Starting a prototype in FontForge (http://fontforge.org) based on some characters designed in Inkscape"
Version: 0.1
ItalicAngle: 0
UnderlinePosition: -204.395
UnderlineWidth: 102.198
Ascent: 1428
Descent: 620
InvalidEm: 0
LayerCount: 2
Layer: 0 0 "Back" 1
Layer: 1 0 "Fore" 0
XUID: [1021 1019 -1955934214 2614676]
FSType: 0
OS2Version: 0
OS2_WeightWidthSlopeOnly: 0
OS2_UseTypoMetrics: 1
CreationTime: 1505574909
ModificationTime: 1505744822
PfmFamily: 17
TTFWeight: 400
TTFWidth: 5
LineGap: 184
VLineGap: 0
OS2TypoAscent: 0
OS2TypoAOffset: 1
OS2TypoDescent: 0
OS2TypoDOffset: 1
OS2TypoLinegap: 184
OS2WinAscent: 0
OS2WinAOffset: 1
OS2WinDescent: 0
OS2WinDOffset: 1
HheadAscent: 0
HheadAOffset: 1
HheadDescent: 0
HheadDOffset: 1
OS2Vendor: 'PfEd'
MarkAttachClasses: 1
DEI: 91125
LangName: 1033
Encoding: UnicodeBmp
UnicodeInterp: none
NameList: AGL For New Fonts
DisplaySize: -128
AntiAlias: 1
FitToEm: 0
WinInfo: 48 24 10
BeginPrivate: 0
EndPrivate
Grid
2020 2248 m 0
 2020 -1024 l 1024
  Named: "20"
-202 -606 m 0
 2248 -606 l 1024
  Named: "s3"
-200 -404 m 0
 2248 -404 l 1024
  Named: "s2"
-200 -202 m 0
 2248 -202 l 1024
  Named: "s1"
-200 1414 m 0
 2248 1414 l 1024
  Named: "n7"
-200 1212 m 0
 2248 1212 l 1024
  Named: "n6"
-200 1010 m 0
 2248 1010 l 1024
  Named: "n5"
-200 808 m 0
 2248 808 l 1024
  Named: "n4"
-200 606 m 0
 2248 606 l 1024
  Named: "n3"
-200 404 m 0
 2248 404 l 1024
  Named: "n2"
-200 202 m 0
 2248 202 l 1024
  Named: "n1"
202 2248 m 0
 202 -1024 l 1024
  Named: "2"
404 2248 m 0
 404 -1024 l 1024
  Named: "4"
606 2248 m 0
 606 -1024 l 1024
  Named: "6"

StartChar: a
Encoding: 97 97 0
Width: 1429
VWidth: 0
Flags: W
HStem: 0 404<404 808> 606 404<404 808>
LayerCount: 2
Fore
SplineSet
404 404 m 1
 536 404 676 404 808 404 c 1
 808 606 l 1
 671 606 541 606 404 606 c 1
 404 404 l 1
0 0 m 1
 0 341 0 669 0 1010 c 1
 272 1010 536 1010 808 1010 c 1
 808 1212 l 1
 1212 1010 l 1
 1212 0 l 1
 803 0 409 0 0 0 c 1
EndSplineSet
EndChar

StartChar: s
Encoding: 115 115 1
Width: 1429
VWidth: 0
Flags: HW
HStem: 0 409<0 818> 613 409<0 91 409 818>
LayerCount: 2
Fore
SplineSet
0 0 m 25
 0 404 l 17
 272 404 536 404 808 404 c 9
 808 606 l 25
 0 606 l 25
 0 1010 l 17
 129 1073 257 1137 404 1212 c 13
 404 1010 l 17
 676 1010 940 1010 1212 1010 c 9
 1212 0 l 25
 0 0 l 25
EndSplineSet
EndChar

StartChar: b
Encoding: 98 98 2
Width: 1429
VWidth: 0
Flags: HW
HStem: 0 404<621 1025> 606 404<621 1025>
VStem: 217 404<404 606 1010 1414>
LayerCount: 2
Fore
SplineSet
404 606 m 25
 404 404 l 25
 808 404 l 25
 808 606 l 25
 404 606 l 25
0 1414 m 9
 404 1414 l 25
 404 1010 l 25
 1212 1010 l 25
 1212 0 l 25
 0 0 l 17
 -0 471.333333333 0 942.666666667 0 1414 c 9
EndSplineSet
EndChar

StartChar: i
Encoding: 105 105 3
Width: 611
VWidth: 0
Flags: HW
HStem: 0 21G<0 409> 1002 20G<0 409>
VStem: 0 409<0 1022>
LayerCount: 2
Fore
SplineSet
0 0 m 29
 0 1010 l 25
 404 1010 l 25
 404 0 l 25
 0 0 l 29
EndSplineSet
EndChar

StartChar: n
Encoding: 110 110 4
Width: 1429
VWidth: 0
Flags: HW
HStem: 0 21G<0 409 818 1227> 613 409<409 818>
VStem: 0 409<0 613> 818 409<0 613>
LayerCount: 2
Fore
SplineSet
0 0 m 17
 -0 335.203459417 0 719.262641253 0 1010 c 9
 1212 1010 l 25
 1212 0 l 25
 808 0 l 25
 808 606 l 25
 404 606 l 25
 404 0 l 29
 0 0 l 17
EndSplineSet
EndChar

StartChar: q
Encoding: 113 113 5
Width: 1429
VWidth: 0
Flags: HW
HStem: -409 21G<818 858> 0 409<409 818> 613 409<409 818>
VStem: 818 409<-204 0 409 613>
LayerCount: 2
Fore
SplineSet
404 404 m 25
 808 404 l 25
 808 606 l 17
 671 606 541 606 404 606 c 9
 404 404 l 25
0 0 m 1
 0 1010 l 29
 1212 1010 l 1
 1212 -202 l 1
 808 -404 l 1
 808 0 l 1
 0 0 l 1
EndSplineSet
EndChar

StartChar: c
Encoding: 99 99 6
Width: 1429
VWidth: 0
Flags: HW
HStem: 0 409<409 1227> 613 409<409 1227>
LayerCount: 2
Fore
SplineSet
0 0 m 25
 0 1010 l 29
 1212 1010 l 25
 1212 606 l 25
 404 606 l 25
 409 409 l 25
 1212 404 l 25
 1212 0 l 25
 0 0 l 25
EndSplineSet
EndChar

StartChar: d
Encoding: 100 100 7
Width: 1429
VWidth: 0
Flags: HW
HStem: 0 409<409 818> 613 409<409 818> 1411 20G<818 1227>
VStem: 818 409<409 613 1022 1431>
LayerCount: 2
Fore
SplineSet
404 606 m 9
 404 404 l 25
 808 404 l 25
 808 606 l 17
 671 606 541 606 404 606 c 9
0 0 m 25
 0 1010 l 29
 808 1010 l 25
 808 1414 l 25
 1212 1414 l 25
 1212 0 l 25
 0 0 l 25
EndSplineSet
EndChar

StartChar: e
Encoding: 101 101 8
Width: 1429
VWidth: 0
Flags: HW
HStem: 0 409<409 818> 613 409<409 818>
LayerCount: 2
Fore
SplineSet
404 606 m 25
 404 404 l 17
 541 404 671 404 808 404 c 9
 808 606 l 25
 404 606 l 25
0 0 m 25
 0 1010 l 25
 1212 1010 l 29
 1212 0 l 25
 404 0 l 25
 404 -202 l 25
 0 0 l 25
EndSplineSet
EndChar

StartChar: f
Encoding: 102 102 9
Width: 1429
VWidth: 0
Flags: HW
HStem: -409 21G<369 409> 0 409<409 818> 613 409<409 1227>
VStem: 0 409<-204 0 409 613>
LayerCount: 2
Fore
SplineSet
0 1010 m 25
 1212 1010 l 25
 1212 606 l 25
 404 606 l 25
 404 404 l 1
 1212 404 l 25
 1212 0 l 25
 404 0 l 5
 404 -404 l 25
 0 -202 l 25
 0 1010 l 25
EndSplineSet
EndChar

StartChar: g
Encoding: 103 103 10
Width: 1429
VWidth: 0
Flags: HW
HStem: -613 409<0 409 818 1227> 613 409<409 818>
VStem: 0 1226<-613 -204 0 409 613 1022>
LayerCount: 2
Fore
SplineSet
404 404 m 25
 808 404 l 25
 808 606 l 17
 671 606 541 606 404 606 c 9
 404 404 l 25
1212 -606 m 1
 505 -606 l 25
 505 -202 l 25
 808 -202 l 25
 808 0 l 25
 0 0 l 1
 0 1010 l 5
 409 1010 803 1010 1212 1010 c 1
 1212 -606 l 1
EndSplineSet
EndChar

StartChar: h
Encoding: 104 104 11
Width: 1429
VWidth: 0
Flags: HW
HStem: 0 21G<0 409 818 1227> 613 409<409 818> 1411 20G<0 409>
VStem: 0 409<0 613 1022 1431> 818 409<0 613>
LayerCount: 2
Fore
SplineSet
0 0 m 29
 0 1414 l 25
 404 1414 l 25
 404 1010 l 25
 1212 1010 l 25
 1212 0 l 25
 808 0 l 25
 808 606 l 25
 404 606 l 25
 404 0 l 25
 0 0 l 29
EndSplineSet
EndChar

StartChar: j
Encoding: 106 106 12
Width: 611
VWidth: 0
Flags: HW
HStem: -409 21G<0 41> 1002 20G<0 409>
VStem: 0 409<-204 1022>
LayerCount: 2
Fore
SplineSet
0 1010 m 25
 404 1010 l 25
 404 -202 l 25
 0 -404 l 29
 0 1010 l 25
EndSplineSet
EndChar

StartChar: k
Encoding: 107 107 13
Width: 1429
VWidth: 0
Flags: HW
HStem: 0 21G<0 409 613 1227> 613 409<409 613 1022 1227> 1411 20G<0 409>
VStem: 0 409<0 613 1022 1431> 613 613<0 409>
LayerCount: 2
Fore
SplineSet
1010 606 m 25
 1010 404 l 25
 1212 404 l 25
 1212 0 l 25
 606 0 l 25
 606 606 l 29
 404 606 l 25
 404 0 l 25
 0 0 l 25
 0 1414 l 25
 404 1414 l 25
 404 1010 l 25
 1212 1010 l 25
 1010 606 l 25
EndSplineSet
EndChar

StartChar: l
Encoding: 108 108 14
Width: 611
VWidth: 0
Flags: HW
HStem: 0 21G<0 409> 1411 20G<0 409>
VStem: 0 409<0 1431>
LayerCount: 2
Fore
SplineSet
0 0 m 29
 0 1414 l 25
 404 1414 l 25
 404 0 l 25
 0 0 l 29
EndSplineSet
EndChar

StartChar: m
Encoding: 109 109 15
Width: 1837
VWidth: 0
Flags: HW
HStem: 0 21G<0 409 613 1022 1227 1635> 613 409<409 613 1022 1227>
VStem: 0 409<0 613> 613 409<0 613> 1227 409<0 613>
CounterMasks: 1 38
LayerCount: 2
Fore
SplineSet
0 0 m 29
 0 1010 l 25
 1616 1010 l 25
 1616 0 l 25
 1212 0 l 25
 1212 606 l 25
 1010 606 l 25
 1010 0 l 25
 606 0 l 25
 606 606 l 25
 404 606 l 25
 404 0 l 25
 0 0 l 29
EndSplineSet
EndChar

StartChar: o
Encoding: 111 111 16
Width: 1429
VWidth: 0
Flags: HW
HStem: 0 409<409 818> 613 409<409 818>
LayerCount: 2
Fore
SplineSet
404 404 m 25
 808 404 l 25
 808 606 l 17
 671 606 541 606 404 606 c 13
 404 404 l 25
0 0 m 25
 0 1010 l 25
 1212 1010 l 25
 1212 0 l 25
 0 0 l 25
EndSplineSet
EndChar

StartChar: p
Encoding: 112 112 17
Width: 1429
VWidth: 0
Flags: HW
HStem: -409 21G<0 409> 0 409<409 818> 613 409<409 818>
VStem: 0 409<-409 0 409 613>
LayerCount: 2
Fore
SplineSet
404 404 m 25
 808 404 l 25
 808 606 l 17
 671 606 541 606 404 606 c 9
 404 404 l 25
0 -404 m 1
 0 1010 l 25
 1212 1010 l 25
 1212 0 l 17
 404 0 l 5
 404 -404 l 1
 0 -404 l 1
EndSplineSet
EndChar

StartChar: r
Encoding: 114 114 18
Width: 1429
VWidth: 0
Flags: HW
HStem: 0 21G<0 409> 613 409<409 1227>
VStem: 0 409<0 613>
LayerCount: 2
Fore
SplineSet
0 0 m 25
 0 1010 l 25
 1212 1010 l 25
 1212 606 l 25
 404 606 l 25
 404 0 l 29
 0 0 l 25
EndSplineSet
EndChar

StartChar: t
Encoding: 116 116 19
Width: 1429
VWidth: 0
Flags: HW
HStem: 0 409<409 1227> 613 409<409 818> 1411 20G<369 409>
VStem: 0 409<409 613 1022 1226>
LayerCount: 2
Fore
SplineSet
0 0 m 17
 0 406 0 806 0 1212 c 9
 404 1414 l 25
 404 1010 l 1
 1212 1010 l 5
 1212 606 l 1
 404 606 l 1
 404 404 l 25
 1212 404 l 25
 1212 0 l 25
 0 0 l 17
EndSplineSet
EndChar

StartChar: u
Encoding: 117 117 20
Width: 1429
VWidth: 0
Flags: HW
HStem: 0 409<409 818> 1002 20G<0 409 818 1227>
VStem: 0 409<409 1022> 818 409<409 1022>
LayerCount: 2
Fore
SplineSet
0 0 m 25
 0 1010 l 29
 404 1010 l 25
 404 404 l 25
 808 404 l 25
 808 1010 l 25
 1212 1010 l 25
 1212 -202 l 25
 808 0 l 25
 0 0 l 25
EndSplineSet
EndChar

StartChar: v
Encoding: 118 118 21
Width: 1429
VWidth: 0
Flags: HW
HStem: 0 409<409 818> 1002 20G<0 409 818 1227>
VStem: 0 409<409 1022> 818 409<409 1022>
LayerCount: 2
Fore
SplineSet
0 0 m 25
 0 1010 l 29
 404 1010 l 25
 404 404 l 25
 808 404 l 25
 808 1010 l 25
 1212 1010 l 25
 1212 0 l 25
 0 0 l 25
EndSplineSet
EndChar

StartChar: w
Encoding: 119 119 22
Width: 1837
VWidth: 0
Flags: HW
HStem: 0 409<409 613 1022 1227> 1002 20G<0 409 613 1022 1227 1635>
VStem: 0 409<409 1022> 613 409<409 1022> 1227 409<409 1022>
CounterMasks: 1 38
LayerCount: 2
Fore
SplineSet
0 0 m 25
 0 1010 l 29
 404 1010 l 25
 404 404 l 25
 606 404 l 25
 606 1010 l 25
 1010 1010 l 25
 1010 404 l 25
 1212 404 l 25
 1212 1010 l 25
 1616 1010 l 25
 1616 0 l 25
 0 0 l 25
EndSplineSet
EndChar

StartChar: x
Encoding: 120 120 23
Width: 1429
VWidth: 0
Flags: HW
HStem: 0 409<0 409 818 1227> 613 409<0 409 818 1227>
LayerCount: 2
Fore
SplineSet
0 0 m 25
 0 404 l 25
 404 404 l 25
 404 606 l 29
 0 606 l 25
 0 1010 l 25
 1212 1010 l 25
 1212 606 l 25
 808 606 l 25
 808 404 l 25
 1212 404 l 25
 1212 0 l 25
 0 0 l 25
EndSplineSet
EndChar

StartChar: y
Encoding: 121 121 24
Width: 1429
VWidth: 0
Flags: HW
HStem: -613 409<409 818> 0 409<409 818> 1002 20G<0 409 818 1227>
VStem: 0 409<409 1022> 818 409<-204 0 409 1022>
LayerCount: 2
Fore
SplineSet
0 0 m 25
 0 1010 l 25
 404 1010 l 25
 404 404 l 25
 808 404 l 25
 808 1010 l 25
 1212 1010 l 25
 1212 -606 l 25
 404 -606 l 29
 404 -202 l 25
 808 -202 l 25
 808 0 l 25
 0 0 l 25
EndSplineSet
EndChar

StartChar: z
Encoding: 122 122 25
Width: 1429
VWidth: 0
Flags: HWO
HStem: 0 409<818 1227> 613 409<0 409>
LayerCount: 2
Fore
SplineSet
1212 1010 m 25
 1212 606 l 1
 808 404 l 5
 1212 404 l 1
 1212 0 l 25
 0 0 l 25
 0 404 l 25
 404 606 l 25
 0 606 l 25
 0 1010 l 25
 1212 1010 l 25
EndSplineSet
EndChar

StartChar: G
Encoding: 71 71 27
Width: 1429
VWidth: 0
Flags: HW
LayerCount: 2
Fore
SplineSet
0 0 m 25
 0 1431 l 25
 1227 1431 l 25
 1227 1022 l 25
 409 1022 l 25
 409 409 l 25
 820 409 l 25
 820 613 l 1
 1227 613 l 29
 1227 -204 l 1
 818 -204 l 25
 818 0 l 25
 0 0 l 25
EndSplineSet
EndChar

StartChar: at
Encoding: 64 64 28
Width: 1818
VWidth: 0
Flags: HW
LayerCount: 2
Fore
SplineSet
606 606 m 1
 1010 606 l 1
 1010 404 l 1
 1212 404 l 1
 1212 808 l 1
 404 808 l 1
 404 0 l 1
 0 202 l 1
 0 1212 l 1
 1616 1212 l 1
 1616 0 l 1
 606 0 l 1
 606 606 l 1
EndSplineSet
EndChar

StartChar: .notdef
Encoding: 65536 -1 29
Width: 2047
VWidth: 0
Flags: HW
HStem: 0 204<615 1433> 1022 204<615 1433>
VStem: 411 204<204 1022> 1433 204<204 1022>
LayerCount: 2
Fore
SplineSet
1433 204 m 25
 1433 1022 l 17
 1161 1022 887 1022 615 1022 c 9
 615 204 l 25
 1433 204 l 25
411 0 m 25
 411 1226 l 25
 1637 1226 l 25
 1637 0 l 25
 411 0 l 25
EndSplineSet
Comment: "Montserrat defines the .notdef glyph beyond the Unicode most-significant character (0xFFFF) to have the address 0x10000.+AAoACgAA-http://unicode.org/charts/PDF/U25A0.pdf+AAoA-https://www.microsoft.com/typography/otspec/recom.htm"
EndChar
